Coordinates
version=1
nRows=16
nColumns=22
inDegrees=yes

Units are S.I. units (second, meters, Newtons, ...)
If the header above contains a line with 'inDegrees', this indicates whether rotational values are in degrees (yes) or radians (no).

endheader
time	pelvis_tilt	pelvis_list	pelvis_rotation	pelvis_tx	pelvis_ty	pelvis_tz	hip_flexion_r	hip_adduction_r	hip_rotation_r	knee_angle_r	ankle_angle_r	subtalar_angle_r	hip_flexion_l	hip_adduction_l	hip_rotation_l	knee_angle_l	ankle_angle_l	subtalar_angle_l	lumbar_extension	lumbar_bending	lumbar_rotation
      0.01000000	     -3.33718912	     -8.34097594	      3.43516438	      1.19085287	      0.96418706	     -0.32970473	      8.08031666	      8.78052967	     -2.02664085	    -15.65827182	      7.77745293	      1.52232661	      4.53235410	     -8.57456655	      1.15676956	    -10.21070153	     11.34283708	     -1.70394706	      0.20260268	      6.81263174	     -6.64363364
      0.02000000	     -3.38020221	     -8.35010125	      3.41897237	      1.19052050	      0.96417717	     -0.32967972	      8.09489520	      8.78196563	     -2.05196097	    -15.57043857	      7.77328254	      1.54568167	      4.56768918	     -8.58357978	      1.13858993	    -10.15777417	     11.33304791	     -1.69630300	      0.20958425	      6.81962008	     -6.64505966
      0.03000000	     -3.49886252	     -8.38743095	      3.36498409	      1.19004776	      0.96409348	     -0.32958237	      8.20484628	      8.81821051	     -1.98863625	    -15.49477040	      7.71074814	      1.63276909	      4.68884410	     -8.61990928	      1.13628888	    -10.10841471	     11.33488289	     -1.62278012	      0.28476952	      6.85354523	     -6.62515707
      0.04000000	     -3.65975167	     -8.39724304	      3.30110057	      1.18950837	      0.96393703	     -0.32950000	      8.38689417	      8.81557419	     -1.97051355	    -15.46817353	      7.72897177	      1.73641342	      4.88296744	     -8.62326649	      1.07208320	    -10.10638204	     11.38869702	     -1.45022030	      0.39922953	      6.85675349	     -6.57837060
      0.05000000	     -3.79092050	     -8.40043568	      3.22822198	      1.18899528	      0.96382337	     -0.32941340	      8.53860468	      8.81155050	     -1.92387697	    -15.45121654	      7.73666859	      1.78920312	      5.00965458	     -8.62256165	      1.01830287	    -10.05032042	     11.40856234	     -1.32426615	      0.48151743	      6.85619994	     -6.52732574
      0.06000000	     -3.91248601	     -8.40063413	      3.14362726	      1.18847733	      0.96371064	     -0.32932489	      8.70907022	      8.80659332	     -1.86643646	    -15.49074398	      7.77202047	      1.82364102	      5.11213618	     -8.61999363	      0.96412788	     -9.97600748	     11.41225288	     -1.23645186	      0.55029831	      6.85570448	     -6.45120216
      0.07000000	     -4.04843634	     -8.37801012	      3.05400070	      1.18797004	      0.96356369	     -0.32923772	      8.91447545	      8.77475218	     -1.81516276	    -15.57210156	      7.83871077	      1.87276049	      5.24662620	     -8.59429321	      0.86291929	     -9.93609574	     11.42130426	     -1.14410459	      0.63712073	      6.82827554	     -6.38808012
      0.08000000	     -4.15652703	     -8.35344489	      2.96714099	      1.18750470	      0.96343568	     -0.32916640	      9.11924157	      8.74009404	     -1.77798613	    -15.71248277	      7.93893004	      1.91557215	      5.33626291	     -8.56783693	      0.78172080	     -9.87603076	     11.40641601	     -1.08142481	      0.69688215	      6.80290324	     -6.30376798
      0.09000000	     -4.24461020	     -8.31542190	      2.88869702	      1.18710018	      0.96331543	     -0.32911781	      9.32565962	      8.68728730	     -1.76213629	    -15.90331460	      8.07008903	      1.95449860	      5.39938078	     -8.52749656	      0.69670849	     -9.81205794	     11.38719029	     -1.03966004	      0.74216541	      6.76501356	     -6.22007427
      0.10000000	     -4.30888519	     -8.26723600	      2.82268785	      1.18677529	      0.96320646	     -0.32909408	      9.52507246	      8.61751056	     -1.78459638	    -16.13517441	      8.22640108	      1.98705127	      5.43020952	     -8.47634577	      0.62044553	     -9.74209306	     11.36493462	     -1.01164966	      0.77178107	      6.71900251	     -6.14119100
      0.11000000	     -4.34710896	     -8.20919585	      2.77541899	      1.18654550	      0.96311154	     -0.32909060	      9.70825480	      8.53017397	     -1.85094085	    -16.39577455	      8.39918236	      2.00929675	      5.42716938	     -8.41503108	      0.55631109	     -9.66652186	     11.34258899	     -0.99293276	      0.78558165	      6.66249019	     -6.07190702
      0.12000000	     -4.36272989	     -8.14198235	      2.75006788	      1.18640456	      0.96303054	     -0.32911351	      9.87106952	      8.42452149	     -1.96236239	    -16.66799365	      8.57801388	      2.02229013	      5.39531004	     -8.34329916	      0.50749590	     -9.58464732	     11.32125726	     -0.97938114	      0.78613330	      6.59795082	     -6.01413017
      0.13000000	     -4.35366164	     -8.06498480	      2.75065299	      1.18638544	      0.96296459	     -0.32916079	      9.99955104	      8.30169265	     -2.11535977	    -16.93517082	      8.75595397	      2.02277662	      5.33423276	     -8.26015783	      0.47855007	     -9.50386053	     11.30225925	     -0.96961203	      0.77846821	      6.52162379	     -5.97236259
      0.14000000	     -4.32524805	     -7.98465625	      2.77898174	      1.18645142	      0.96291292	     -0.32923210	     10.09412838	      8.17042962	     -2.30051021	    -17.18032746	      8.91872889	      2.01381867	      5.25229097	     -8.17261311	      0.47359354	     -9.42151536	     11.28487229	     -0.96246779	      0.76284024	      6.44233811	     -5.94611945
      0.15000000	     -4.28072477	     -7.90535071	      2.83612058	      1.18660328	      0.96287702	     -0.32931643	     10.15082143	      8.04065120	     -2.49990204	    -17.39113569	      9.05527551	      1.99737548	      5.15581927	     -8.08586249	      0.49623218	     -9.34270297	     11.26877818	     -0.95779029	      0.74357011	      6.36250928	     -5.93837318
      0.16000000	     -4.22446427	     -7.83441715	      2.91976364	      1.18682890	      0.96285525	     -0.32942958	     10.16890074	      7.92221483	     -2.70298703	    -17.55614865	      9.16172035	      1.97566557	      5.05540308	     -8.00643066	      0.54301236	     -9.27613360	     11.25750686	     -0.95442464	      0.72462309	      6.29399582	     -5.93345506
